<svg width="914" height="1080" viewBox="0 0 914 1080" fill="none" xmlns="http://www.w3.org/2000/svg">
<g filter="url(#filter0_d_648_759)">
<path d="M72.8073 -36.5791C168.609 -201.776 914 -36.5791 914 -36.5791V1080H72.8073C72.8073 1080 304.364 1080 135.602 588.225C-33.1595 96.4506 -22.9949 128.618 72.8073 -36.5791Z" fill="url(#paint0_linear_648_759)"/>
</g>
<path d="M323.752 769.662H540.011" stroke="#222221" stroke-width="0.5" stroke-miterlimit="10"/>
<path d="M630.029 773.673H671.36" stroke="#222221" stroke-width="0.5" stroke-miterlimit="10"/>
<path d="M616.977 758.076C665.45 757.604 715.281 757.604 764.295 758.076" stroke="#222221" stroke-width="0.5" stroke-miterlimit="10"/>
<path d="M562.82 766.575C629.526 767.101 696.74 767.101 764.222 766.575" stroke="#222221" stroke-width="0.5" stroke-miterlimit="10"/>
<path d="M672.748 762.245C695.398 762.22 718.047 762.178 740.697 762.119" stroke="#222221" stroke-width="0.5" stroke-miterlimit="10"/>
<path d="M478.307 762.201C499.003 762.238 656.283 762.266 656.283 762.266" stroke="#222221" stroke-width="0.5" stroke-miterlimit="10"/>
<path d="M636.246 563.592C660.632 578.015 692.558 577.952 716.889 563.432C725.65 558.203 733.664 550.933 737.604 541.363C738.99 537.997 739.867 534.373 741.063 530.93C741.96 528.349 743.037 525.869 744.641 523.677C748.737 518.079 755.685 515.213 759.682 509.541C764.551 502.629 763.937 493.015 760.98 485.048C758.022 477.082 753.046 470.081 749.449 462.396C740.508 443.296 749.222 423.607 739.791 403.865C729.548 382.42 710.667 365.787 690.928 353.782C635.649 320.16 565.878 312.691 505.006 333.878C481.666 342.002 455.193 358.741 429.839 357.629C409.915 356.755 388.82 353.997 379.89 378.956C372.292 400.191 389.833 412.498 400.461 427.372C412.395 444.075 407.725 465.99 404.313 484.733C400.501 505.674 403.771 528.162 421.287 542.015C431.904 550.41 445.41 553.829 458.586 556.398C476.853 559.959 494.457 556.198 510.18 545.923C514.571 543.054 518.741 539.693 521.841 535.405C527.099 528.133 528.855 518.818 529.435 509.789C530.859 487.626 525.681 450.68 534.491 433.635C538.863 425.174 530.38 423.722 536.653 416.625C541.823 410.777 549.377 407.531 557.015 406.516C568.202 405.029 579.909 408.146 588.973 415.026C608.184 429.607 608.008 452.314 603.068 474.137C599.506 489.875 594.084 506.706 600.114 521.634C606.912 538.463 620.904 554.517 636.246 563.592Z" stroke="#222221" stroke-width="0.5" stroke-miterlimit="10" stroke-dasharray="4 4"/>
<path d="M639.555 347.336H533.352V426.736H639.555V347.336Z" fill="#878787" stroke="black" stroke-width="0.5" stroke-miterlimit="10"/>
<path d="M634.008 355.264H527.805V434.664H634.008V355.264Z" fill="black"/>
<path d="M627.649 359.983H522.48V439.382H627.649V359.983Z" fill="white" stroke="#222221" stroke-width="0.5" stroke-miterlimit="10"/>
<path d="M594.264 360.091V439.652" stroke="#222221" stroke-width="0.5" stroke-miterlimit="10" stroke-dasharray="4 4"/>
<path d="M556.211 360.091V439.652" stroke="#222221" stroke-width="0.5" stroke-miterlimit="10" stroke-dasharray="4 4"/>
<path d="M522.1 399.621H627.25" stroke="#222221" stroke-width="0.5" stroke-miterlimit="10" stroke-dasharray="4 4"/>
<path d="M581.618 413.42L574.994 422.732L570.423 417.512C569.892 417.929 569.385 418.374 568.895 418.838L575.155 425.988L583.175 414.713C582.66 414.277 582.142 413.845 581.618 413.42Z" fill="#A8DCA4" stroke="black" stroke-width="0.5" stroke-miterlimit="10"/>
<path d="M615.53 413.42L608.906 422.732L604.335 417.512C603.804 417.929 603.297 418.374 602.807 418.838L609.067 425.988L617.087 414.713C616.572 414.277 616.054 413.845 615.53 413.42Z" fill="#A8DCA4" stroke="black" stroke-width="0.5" stroke-miterlimit="10"/>
<path d="M546.109 413.063L539.233 422.922L534.378 417.479C533.824 417.923 533.294 418.396 532.783 418.889L539.435 426.344L547.76 414.408C547.213 413.954 546.664 413.506 546.109 413.063Z" fill="#A8DCA4" stroke="black" stroke-width="0.5" stroke-miterlimit="10"/>
<path d="M580.93 374.247L574.306 383.559L569.736 378.338C569.205 378.755 568.697 379.2 568.207 379.664L574.467 386.815L582.488 375.539C581.972 375.104 581.454 374.672 580.93 374.247Z" fill="#A8DCA4" stroke="black" stroke-width="0.5" stroke-miterlimit="10"/>
<path d="M614.637 374.247L608.013 383.559L603.443 378.338C602.912 378.755 602.404 379.2 601.914 379.664L608.174 386.815L616.195 375.539C615.68 375.104 615.161 374.672 614.637 374.247Z" fill="#A8DCA4" stroke="black" stroke-width="0.5" stroke-miterlimit="10"/>
<path d="M545.625 373.89L538.749 383.749L533.893 378.306C533.338 378.749 532.81 379.223 532.299 379.716L538.951 387.171L547.276 375.235C546.729 374.781 546.18 374.331 545.625 373.89Z" fill="#A8DCA4" stroke="black" stroke-width="0.5" stroke-miterlimit="10"/>
<path d="M364.014 769.511L381.457 677.553L430.135 677.17L451.634 769.895" stroke="black" stroke-width="4" stroke-miterlimit="10"/>
<path d="M380.646 762.231L394.844 675.129L443.522 674.746L464.616 762.615" stroke="black" stroke-width="4" stroke-miterlimit="10"/>
<path d="M642.695 766.159L660.139 666.439L708.817 666.024L730.316 766.575" stroke="black" stroke-width="4" stroke-miterlimit="10"/>
<path d="M659.326 758.264L673.525 663.81L722.202 663.395L743.295 758.68" stroke="black" stroke-width="4" stroke-miterlimit="10"/>
<path d="M500.666 690.659C505.448 692.459 507.692 693.57 512.63 694.863C499.986 712.769 481.109 744.772 477.387 749.864C472.051 746.778 466.876 745.782 461.848 742.138C467.356 719.913 476.143 709.09 483.45 683.656C489.123 686.154 494.87 688.477 500.666 690.659Z" fill="white" stroke="#222221" stroke-width="0.5" stroke-miterlimit="10"/>
<path d="M482.821 749.465C520.505 796.425 474.99 764.803 459.34 750.204C456.511 746.58 461.08 740.287 462.803 734.65C474.682 749.363 486.056 732.679 482.821 749.465Z" fill="black"/>
<path d="M531.71 576.155L527.941 588.771C535.349 588.682 542.784 588.527 550.173 588.639C552.092 588.669 554.263 588.215 556.072 587.632C558.075 586.987 559.978 585.853 561.161 584.126C561.717 583.315 562.108 582.348 562.018 581.364C561.923 580.325 561.311 579.402 560.657 578.578C559.41 577.003 557.805 575.53 555.826 575.208C554.171 574.939 552.609 575.526 551.011 575.81C549.331 576.108 547.531 576.266 545.819 576.185C542.927 576.05 540.893 573.805 538.867 572.003C538.013 571.244 536.886 570.865 535.753 570.959" fill="white"/>
<path d="M531.71 576.155L527.941 588.771C535.349 588.682 542.784 588.527 550.173 588.639C552.092 588.669 554.263 588.215 556.072 587.632C558.075 586.987 559.978 585.853 561.161 584.126C561.717 583.315 562.108 582.348 562.018 581.364C561.923 580.325 561.311 579.402 560.657 578.578C559.41 577.003 557.805 575.53 555.826 575.208C554.171 574.939 552.609 575.526 551.011 575.81C549.331 576.108 547.531 576.266 545.819 576.185C542.927 576.05 540.893 573.805 538.867 572.003C538.013 571.244 536.886 570.865 535.753 570.959" stroke="#222221" stroke-width="0.5" stroke-miterlimit="10"/>
<path d="M532.091 585.72L534.049 588.949C534.621 589.896 534.232 591.115 533.223 591.545C532.46 591.869 531.567 591.636 531.05 590.98L527.863 586.935" fill="white"/>
<path d="M532.091 585.72L534.049 588.949C534.621 589.896 534.232 591.115 533.223 591.545C532.46 591.869 531.567 591.636 531.05 590.98L527.863 586.935" stroke="#222221" stroke-width="0.5" stroke-miterlimit="10"/>
<path d="M536.169 584.755L538.264 588.239C538.823 589.276 538.368 590.556 537.282 590.995C536.373 591.362 535.322 591.009 534.809 590.165L532.094 585.719" fill="white"/>
<path d="M536.169 584.755L538.264 588.239C538.823 589.276 538.368 590.556 537.282 590.995C536.373 591.362 535.322 591.009 534.809 590.165L532.094 585.719" stroke="#222221" stroke-width="0.5" stroke-miterlimit="10"/>
<path d="M536.168 584.755L538.926 589.197C539.786 590.191 540.659 590.28 541.457 590.017L541.505 590.001C542.711 589.605 543.208 588.194 542.525 587.122C541.978 586.265 541.344 585.27 540.782 584.388C539.785 582.824 538.598 581.387 537.248 580.11C537.248 580.11 530.26 573.497 530.245 573.483C524.927 568.45 517.816 571.506 511.326 569.897C509.839 569.529 508.247 569.094 506.819 569.654C505.93 570.003 505.218 570.702 504.589 571.433C503.776 572.379 503.04 573.439 502.728 574.66C502.416 575.88 502.594 577.286 503.427 578.215C504.359 579.252 505.841 579.481 507.192 579.746C512.749 580.835 517.41 584.233 522.273 587.046C522.651 587.274 523.001 587.544 523.318 587.852L527.215 591.637C527.71 592.063 528.396 592.188 529.002 591.961C530.093 591.554 530.477 590.216 529.772 589.276L528.049 586.976" fill="white"/>
<path d="M536.168 584.755L538.926 589.197C539.786 590.191 540.659 590.28 541.457 590.017L541.505 590.001C542.711 589.605 543.208 588.194 542.525 587.122C541.978 586.265 541.344 585.27 540.782 584.388C539.785 582.824 538.598 581.387 537.248 580.11C537.248 580.11 530.26 573.497 530.245 573.483C524.927 568.45 517.816 571.506 511.326 569.897C509.839 569.529 508.247 569.094 506.819 569.654C505.93 570.003 505.218 570.702 504.589 571.433C503.776 572.379 503.04 573.439 502.728 574.66C502.416 575.88 502.594 577.286 503.427 578.215C504.359 579.252 505.841 579.481 507.192 579.746C512.749 580.835 517.41 584.233 522.273 587.046C522.651 587.274 523.001 587.544 523.318 587.852L527.215 591.637C527.71 592.063 528.396 592.188 529.002 591.961C530.093 591.554 530.477 590.216 529.772 589.276L528.049 586.976" stroke="#222221" stroke-width="0.5" stroke-miterlimit="10"/>
<path d="M535.754 570.958C532.049 571.234 528.525 572.157 524.761 572.028C524.281 572.011 523.785 571.988 523.337 572.15C522.887 572.313 522.491 572.716 522.5 573.194C522.553 575.893 530.699 575.52 532.492 575.667C532.95 575.705 533.11 575.932 533.566 575.977" fill="white"/>
<path d="M535.754 570.958C532.049 571.234 528.525 572.157 524.761 572.028C524.281 572.011 523.785 571.988 523.337 572.15C522.887 572.313 522.491 572.716 522.5 573.194C522.553 575.893 530.699 575.52 532.492 575.667C532.95 575.705 533.11 575.932 533.566 575.977" stroke="#222221" stroke-width="0.5" stroke-miterlimit="10"/>
<path d="M525.919 587.214C526.437 586.47 527.238 585.183 526.596 584.268C525.924 583.311 524.545 583.24 523.574 583.753C524.544 581.554 522.392 579.449 520.191 580.604C520.866 580.25 520.245 578.948 519.872 578.615C518.964 577.803 518.297 578.233 517.49 578.709C517.481 578.141 517.134 577.6 516.612 577.352C515.482 576.817 514.297 577.851 513.583 578.59C512.771 579.429 511.189 580.32 510.998 581.578C510.722 583.389 512.629 583.683 513.984 583.714C513.677 584.904 514.789 586.247 516.026 586.178C516.171 586.17 516.33 586.15 516.451 586.231C516.55 586.298 516.597 586.417 516.644 586.526C517.215 587.846 518.714 588.712 520.14 588.545C521.575 591.359 524.843 588.761 525.919 587.214Z" fill="white" stroke="#222221" stroke-width="0.5" stroke-miterlimit="10"/>
<path d="M523.773 583.462C523.468 583.66 523.238 583.951 523.015 584.236C521.946 585.598 520.879 586.959 519.811 588.321" stroke="#222221" stroke-width="0.5" stroke-miterlimit="10"/>
<path d="M516.434 585.94C518.027 584.228 519.425 582.336 520.595 580.311" stroke="#222221" stroke-width="0.5" stroke-miterlimit="10"/>
<path d="M517.49 578.709C516.426 580.141 515.048 582.284 513.984 583.715" stroke="#222221" stroke-width="0.5" stroke-miterlimit="10"/>
<path d="M553.122 569.22C553.103 568.764 553.085 568.309 553.068 567.853C566.738 567.923 579.882 566.135 593.997 565.791C594.961 565.768 595.944 565.746 596.858 565.431C599.461 564.531 603.384 557.556 604.894 555.238C606.922 552.124 608.679 548.79 610.472 545.531C614.58 538.06 617.954 528.712 623.568 522.275C627.918 517.288 635.342 515.138 641.534 513.902C645.094 522.191 643.655 532.277 647.215 540.565C647.617 541.502 648.025 542.465 648.076 543.485C648.138 544.76 647.64 545.985 647.152 547.159C644.042 554.628 640.932 562.095 637.822 569.564C635.137 576.013 633.62 583.436 627.206 587.024C624.319 588.639 621.094 589.495 617.885 590.231C607.417 592.634 596.724 593.927 586.01 594.378C580.642 594.603 575.266 594.618 569.896 594.456C568.644 594.418 555.381 594.157 555.322 593.737C554.197 585.608 553.462 577.423 553.122 569.22Z" fill="#5F76E8" stroke="black" stroke-width="0.5" stroke-miterlimit="10"/>
<path d="M502.465 702.128C506.582 699.053 508.73 697.76 512.523 694.271C520.039 714.985 535.54 748.837 537.607 754.835C532.139 757.666 528.456 761.522 522.706 763.782C507.719 746.747 503.811 733.252 487.219 712.903C492.395 709.459 497.474 705.854 502.465 702.128Z" fill="white" stroke="#222221" stroke-width="0.5" stroke-miterlimit="10"/>
<path d="M472.728 634.307C470.815 633.321 468.824 632.531 466.78 632.006C455.559 629.12 443.525 629.598 432.808 625.138C417.752 618.87 407.868 603.941 401.094 588.81C394.321 573.678 389.64 557.402 380.472 543.657C375.437 536.108 368.609 529.163 359.915 527.093C346.486 523.894 332.601 533.779 326.759 546.571C320.917 559.362 321.418 574.19 323.201 588.193C326.565 614.602 332.674 645.182 352.015 664.557C357.316 669.866 363.417 674.334 370.191 677.667C370.238 677.691 370.287 677.714 370.335 677.738C378.266 681.623 387.001 683.471 395.794 683.471H472.728V634.307Z" fill="#878787" stroke="black" stroke-width="0.5" stroke-miterlimit="10"/>
<path d="M325.893 563.122C326.25 573.268 326.316 584.511 327.885 594.535L325.893 563.122Z" fill="#878787"/>
<path d="M325.893 563.122C326.25 573.268 326.316 584.511 327.885 594.535" stroke="black" stroke-width="0.5" stroke-miterlimit="10"/>
<path d="M350.529 656.236C354.774 661.863 359.749 666.91 365.284 671.202L350.529 656.236Z" fill="#878787"/>
<path d="M350.529 656.236C354.774 661.863 359.749 666.91 365.284 671.202" stroke="black" stroke-width="0.5" stroke-miterlimit="10"/>
<path d="M368.123 672.527C370.019 673.403 371.843 674.443 373.571 675.63L368.123 672.527Z" fill="#878787"/>
<path d="M368.123 672.527C370.019 673.403 371.843 674.443 373.571 675.63" stroke="black" stroke-width="0.5" stroke-miterlimit="10"/>
<path d="M358.883 530.26C355.603 529.349 352.067 529.634 348.847 530.744C345.626 531.853 342.704 533.757 340.123 536.02" fill="#878787"/>
<path d="M358.883 530.26C355.603 529.349 352.067 529.634 348.847 530.744C345.626 531.853 342.704 533.757 340.123 536.02" stroke="black" stroke-width="0.5" stroke-miterlimit="10"/>
<path d="M514.511 627.794C504.305 612.638 454.117 612.624 436.323 610.02C425.601 608.451 442.218 596.333 432.041 600.896C420.996 605.848 416.637 617.274 406.715 623.667C417.483 625.946 426.597 631.715 435.441 638.128C442.509 643.254 451.821 646.111 460.331 647.157C468.807 648.199 482.177 638.718 484.595 649.193C485.953 655.077 481.97 670.911 480.101 676.646C475.325 691.306 470.026 705.778 464.657 720.221C466.598 721.207 468.557 722.158 470.529 723.078C478.946 727.002 487.601 730.461 495.959 734.527C500.966 724.107 508.484 707.124 509.318 704.921C514.085 692.333 517.666 678.622 519.319 664.972C520.873 652.143 522.023 638.951 514.511 627.794Z" fill="#5F76E8" stroke="black" stroke-width="0.5" stroke-miterlimit="10"/>
<path d="M424.739 623.379C435.329 627.244 446.95 625.847 458.168 626.579C467.937 627.216 477.728 629.571 486.203 634.588C494.678 639.604 501.759 647.442 504.892 656.941C506.369 661.423 526.1 707.696 530.229 719.967C532.494 726.695 532 727.419 526.273 731.15C520.738 734.755 511.909 741.263 506.374 744.87C488.007 721.914 472.73 696.368 461.109 669.179C460.988 668.898 453.445 669.38 452.633 669.364C449.775 669.308 446.957 669.095 444.104 669.143C434.208 669.308 424.314 669.386 414.42 669.598C406.768 669.762 397.356 670.328 390.517 666.144C389.846 665.733 389.205 665.271 388.621 664.739C386.404 662.717 385.094 659.862 384.05 657.016C381.056 648.855 379.823 640.048 380.323 631.347C380.769 623.614 382.585 615.965 385.752 608.928C386.521 607.221 387.384 605.522 388.667 604.176C390.455 602.299 392.906 601.265 395.311 600.366" fill="#5F76E8"/>
<path d="M424.739 623.379C435.329 627.244 446.95 625.847 458.168 626.579C467.937 627.216 477.728 629.571 486.203 634.588C494.678 639.604 501.759 647.442 504.892 656.941C506.369 661.423 526.1 707.696 530.229 719.967C532.494 726.695 532 727.419 526.273 731.15C520.738 734.755 511.909 741.263 506.374 744.87C488.007 721.914 472.73 696.368 461.109 669.179C460.988 668.898 453.445 669.38 452.633 669.364C449.775 669.308 446.957 669.095 444.104 669.143C434.208 669.308 424.314 669.386 414.42 669.598C406.768 669.762 397.356 670.328 390.517 666.144C389.846 665.733 389.205 665.271 388.621 664.739C386.404 662.717 385.094 659.862 384.05 657.016C381.056 648.855 379.823 640.048 380.323 631.347C380.769 623.614 382.585 615.965 385.752 608.928C386.521 607.221 387.384 605.522 388.667 604.176C390.455 602.299 392.906 601.265 395.311 600.366" stroke="black" stroke-width="0.5" stroke-miterlimit="10"/>
<path d="M379.179 626.299C379.279 626.771 379.719 627.077 380.184 626.993C385.38 626.045 413.637 621.551 416.877 621.432C424.422 621.155 431.899 619.504 439.039 617.033C443.526 615.48 453.211 613.524 453.571 607.776C453.891 602.661 454.212 597.547 454.532 592.432C459.72 593.391 465.306 592.613 469.753 589.712C480.938 582.413 477.406 568.597 474.02 557.888C471.248 549.121 468.671 540.094 464.132 532.082C460.392 525.48 455.196 519.541 448.513 516.164C443.123 513.441 437.506 512.512 432.32 509.2C430.135 507.804 427.781 506.742 425.337 505.909C424.434 505.601 423.228 504.977 422.276 504.976C419.774 504.974 416.317 506.017 413.761 506.431C409.873 507.061 405.919 508.075 402.324 509.738C395.698 512.804 390.35 518.334 386.535 524.675C382.503 531.377 380.076 538.974 378.261 546.613C375.079 560.006 373.912 573.816 374.623 587.581C375.285 600.395 376.529 613.744 379.179 626.299Z" fill="#95CFB6" stroke="black" stroke-width="0.5" stroke-miterlimit="10"/>
<path d="M540.3 749.985C599.356 743.962 548.405 765.173 527.861 770.396C523.347 770.793 520.775 763.407 517.154 758.809C535.696 756.861 528.467 737.909 540.3 749.985Z" fill="black"/>
<path d="M328.434 617.768C420.252 592.819 442.617 657.027 419.57 689.439" stroke="black" stroke-width="3" stroke-miterlimit="10"/>
<path d="M396.41 548.158C402.391 551.496 426.888 575.857 506.599 583.96C510.857 578.142 514.549 572.612 514.509 564.846C506.626 563.578 479.717 557.1 455.487 546.149C436.073 537.375 419.133 525.067 409.445 515.194" fill="#95CFB6"/>
<path d="M396.41 548.158C402.391 551.496 426.888 575.857 506.599 583.96C510.857 578.142 514.549 572.612 514.509 564.846C506.626 563.578 479.717 557.1 455.487 546.149C436.073 537.375 419.133 525.067 409.445 515.194" stroke="black" stroke-width="0.5" stroke-miterlimit="10"/>
<path d="M482.934 605.445H403.16C402.184 605.445 401.393 604.634 401.393 603.634V603.376C401.393 602.376 402.184 601.565 403.16 601.565H482.934C483.91 601.565 484.701 602.376 484.701 603.376V603.634C484.701 604.635 483.91 605.445 482.934 605.445Z" fill="black"/>
<path d="M484.96 605.444H413.77L419.964 563.543C420.178 562.089 421.384 561.003 422.786 561.003H488.333C490.025 561.003 491.299 562.565 491.039 564.323L484.96 605.444Z" fill="black"/>
<path d="M458.658 581.937L461.745 584.567" stroke="#6BA7B3" stroke-miterlimit="10"/>
<path d="M454.6 581.937L457.687 584.567" stroke="#131834" stroke-width="0.5" stroke-miterlimit="10"/>
<path d="M450.541 581.937L453.628 584.567" stroke="#6BA7B3" stroke-miterlimit="10"/>
<path d="M758.652 620.646C753.738 635.74 746.253 649.51 734.176 659.78C728.959 664.217 724.555 666.489 718.129 668.263C710.365 670.406 702.295 670.911 694.291 671.183C682.617 671.579 670.929 671.547 659.255 671.089C652.023 670.805 643.778 669.807 639.61 663.746C632.359 653.2 639.716 640.171 649.931 636.373C659.76 632.719 670.204 630.992 679.499 625.859C698.96 615.109 704.073 590.838 709.174 570.725C712.883 556.092 715.254 540.006 725.547 528.313C738.493 513.605 758.941 516.495 767.539 534.218C778.712 557.271 766.062 597.888 758.652 620.646Z" fill="#878787" stroke="black" stroke-width="0.5" stroke-miterlimit="10"/>
<path d="M755.492 616.137C752.202 631.472 744.32 645.739 733.18 656.524" stroke="black" stroke-width="0.5" stroke-miterlimit="10"/>
<path d="M728.13 659.587C725.913 660.732 723.578 661.637 721.176 662.278" stroke="black" stroke-width="0.5" stroke-miterlimit="10"/>
<path d="M766.672 554.873C767.086 561.275 766.697 567.731 765.518 574.031" stroke="black" stroke-width="0.5" stroke-miterlimit="10"/>
<path d="M742.06 522.609C739.772 522.268 737.43 522.962 735.407 524.108C733.385 525.253 731.631 526.831 729.896 528.394" stroke="black" stroke-width="0.5" stroke-miterlimit="10"/>
<path d="M582.886 657.9C577.534 666.358 572.622 675.245 566.856 683.83C565.158 686.357 561.675 690.6 563.416 693.832C564.932 696.646 570.642 699.005 574.419 698.551C575.206 698.457 575.909 698.24 576.473 697.881C578.26 696.74 579.442 694.86 580.718 693.144C585.414 686.825 591.922 682.216 598.388 677.836C600.835 676.179 603.304 674.525 605.706 672.789L607.474 662.213L582.886 657.9Z" fill="white" stroke="#222221" stroke-width="0.5" stroke-miterlimit="10"/>
<path d="M570.662 692.286C569.199 691.326 567.676 690.019 567.695 688.259C567.703 687.546 567.975 686.865 568.09 686.161C568.205 685.458 568.116 684.635 567.566 684.196C567.272 683.96 566.887 683.872 566.513 683.86C564.619 683.803 563.158 685.473 561.322 685.52C559.421 685.569 557.032 684.46 555.186 683.907C551.966 682.943 537.172 675.685 536.059 682.299C535.281 686.92 545.652 693.716 548.488 695.784C552.195 698.49 556.11 700.847 560.226 702.835C562.743 704.051 568.362 708.478 571.09 706.932C571.666 706.605 572.074 706.045 572.465 705.502C573.725 703.75 574.932 701.941 576.251 700.237C577.114 699.121 578.283 698.138 578.858 696.834C576.294 695.211 573.4 694.049 570.813 692.386C570.762 692.352 570.713 692.32 570.662 692.286Z" fill="black"/>
<path d="M721.187 598.151C712.134 605.817 693.99 601.871 683.364 600.06C658.749 595.864 629.543 572.846 612.271 600.788C603.363 615.199 577.643 655.319 572.439 664.151C573.987 666.965 576.456 669.213 578.893 671.215C582.115 673.859 585.404 676.456 588.709 678.989C591.659 681.251 594.789 683.193 598.206 684.617C598.871 684.895 599.546 685.156 600.229 685.398C600.302 685.413 600.368 685.425 600.445 685.442C601.272 685.616 602.131 685.247 602.572 684.51C603.708 682.612 604.79 680.678 605.826 678.712C614.037 663.123 627.349 648.836 635.042 632.984C644.513 613.467 664.69 642.044 670.195 649.877C680.622 661.099 749.544 668.119 721.187 598.151Z" fill="#D47172" stroke="black" stroke-width="0.5" stroke-miterlimit="10"/>
<path d="M637.474 755.364C635.19 757.896 629.819 759.912 626.3 759.284C620.696 758.283 621.891 751.82 621.833 747.395C621.671 735.008 622.577 722.608 624.541 710.384C626.05 701 629.509 689.974 641.361 691.708C645.36 692.293 648.994 695.284 650.182 699.239C650.89 701.597 650.754 704.125 650.515 706.579C649.61 715.882 648.056 714.933 645.232 723.734C643.815 728.15 638.998 753.675 637.474 755.364Z" fill="white" stroke="#222221" stroke-width="0.5" stroke-miterlimit="10"/>
<path d="M684.072 649.4C681.296 646.337 670.494 634.659 667.596 631.715C661.911 625.936 655.359 619.629 647.636 616.896C634.164 612.13 626.292 624.104 623.908 635.845C620.499 652.64 612.952 715.476 610.472 729.797C610.397 730.234 610.321 730.672 610.244 731.109C623.359 735.204 635.017 735.45 648.73 735.731C651.181 735.781 652.55 713.172 653.372 706.761C654.506 697.925 655.249 689.042 656.435 680.212C656.644 678.657 658.957 664.985 659.701 658.759C659.906 657.046 661.351 655.775 663.035 655.828C666.825 655.949 670.608 655.965 674.378 656.175C679.228 656.444 684.082 656.614 688.939 656.682" fill="#D47172"/>
<path d="M684.072 649.4C681.296 646.337 670.494 634.659 667.596 631.715C661.911 625.936 655.359 619.629 647.636 616.896C634.164 612.13 626.292 624.104 623.908 635.845C620.499 652.64 612.952 715.476 610.472 729.797C610.397 730.234 610.321 730.672 610.244 731.109C623.359 735.204 635.017 735.45 648.73 735.731C651.181 735.781 652.55 713.172 653.372 706.761C654.506 697.925 655.249 689.042 656.435 680.212C656.644 678.657 658.957 664.985 659.701 658.759C659.906 657.046 661.351 655.775 663.035 655.828C666.825 655.949 670.608 655.965 674.378 656.175C679.228 656.444 684.082 656.614 688.939 656.682" stroke="black" stroke-width="0.5" stroke-miterlimit="10"/>
<path d="M597.379 767.907C600.322 763.702 608.111 759.138 610.304 757.942C615.591 755.057 616.88 753.821 619.472 748.064C619.866 747.189 620.354 746.226 621.251 745.938C622.244 745.62 623.314 746.314 623.868 747.216C624.422 748.118 624.611 749.196 624.936 750.209C625.098 750.71 625.318 751.228 625.747 751.519C626.244 751.856 626.891 751.805 627.485 751.741C631.652 751.291 635.821 750.841 639.988 750.393C640.557 754.041 641.047 758.09 639.036 761.159C638.106 762.58 636.724 763.625 635.294 764.507C633.155 765.826 630.85 766.841 628.53 767.787C621.868 770.502 614.999 772.686 608.007 774.312C605.733 774.84 603.355 775.31 601.091 774.741C595.608 773.367 595.41 770.718 597.379 767.907Z" fill="black"/>
<path d="M612.398 607.435C615.154 607.435 617.91 607.435 620.666 607.435C635.611 607.435 650.556 607.435 665.501 607.435C674.561 607.435 683.62 607.435 692.68 607.435C696.919 607.435 701.157 607.435 705.396 607.435C707.275 607.435 709.486 607.818 711.305 607.398C713.484 606.894 715.244 605.123 717.553 605.061C718.34 605.039 719.114 605.234 719.889 605.375C723.559 606.046 727.43 605.514 730.797 603.877C731.683 603.446 732.545 602.929 733.326 602.315C734.419 601.456 735.352 600.409 735.968 599.153C736.959 597.135 737.044 594.786 736.979 592.528C736.369 571.201 726.532 548.895 712.885 532.924C706.749 525.743 699.433 519.637 691.328 514.992C686.278 512.098 680.434 511.659 674.745 511.717C668.774 511.779 662.795 511.841 656.837 512.311C651.335 512.745 646.412 511.217 641.532 513.903" fill="#5F76E8"/>
<path d="M612.398 607.435C615.154 607.435 617.91 607.435 620.666 607.435C635.611 607.435 650.556 607.435 665.501 607.435C674.561 607.435 683.62 607.435 692.68 607.435C696.919 607.435 701.157 607.435 705.396 607.435C707.275 607.435 709.486 607.818 711.305 607.398C713.484 606.894 715.244 605.123 717.553 605.061C718.34 605.039 719.114 605.234 719.889 605.375C723.559 606.046 727.43 605.514 730.797 603.877C731.683 603.446 732.545 602.929 733.326 602.315C734.419 601.456 735.352 600.409 735.968 599.153C736.959 597.135 737.044 594.786 736.979 592.528C736.369 571.201 726.532 548.895 712.885 532.924C706.749 525.743 699.433 519.637 691.328 514.992C686.278 512.098 680.434 511.659 674.745 511.717C668.774 511.779 662.795 511.841 656.837 512.311C651.335 512.745 646.412 511.217 641.532 513.903" stroke="black" stroke-width="0.5" stroke-miterlimit="10"/>
<path d="M633.535 544.268C631.953 554.463 631.434 556.668 631.234 566.988L633.535 544.268Z" fill="#5F76E8"/>
<path d="M633.535 544.268C631.953 554.463 631.434 556.668 631.234 566.988" stroke="black" stroke-width="0.5" stroke-miterlimit="10"/>
<path d="M641.183 506.727C642.43 508.083 642.5 510.842 641.984 512.5C641.818 513.033 641.515 513.576 641.114 513.945C642.774 515.233 644.588 516.307 646.595 516.925C649.087 517.693 651.829 517.745 654.368 517.188C658.035 516.383 662.173 515.024 664.702 512.143C662.884 512.069 660.577 510.222 659.582 508.635C658.492 506.896 658.121 504.785 658.006 502.722C657.498 493.617 659.74 481.708 650.638 476.201C648.629 474.985 646.487 473.897 644.222 473.284C641.818 472.632 640.269 472.647 638.035 473.67C635.988 474.608 634.278 474.529 632.546 476.214C629.613 479.068 629.02 482.879 629.428 486.832C629.941 491.801 630.767 497.577 633.544 501.811C634.432 503.166 635.637 504.351 637.126 504.932C638.444 505.447 640.17 505.625 641.183 506.727Z" fill="white" stroke="#222221" stroke-width="0.5" stroke-miterlimit="10"/>
<path d="M632.949 482.514C633.694 481.895 634.432 481.263 635.294 480.839C636.08 480.452 637.693 480.114 638.449 480.767C639.063 481.297 638.806 481.829 638.863 482.546C639.031 484.685 640.405 485.542 642.351 484.292C643.316 483.673 644.438 482.868 645.487 483.324C647.026 483.993 646.297 485.637 646.676 486.841C647.197 488.501 648.442 490.421 649.508 491.774C650.988 493.653 652.684 495.843 654.781 497.044C661.283 500.771 660.032 490.255 661.338 487.173C661.711 486.292 662.189 485.431 662.282 484.475C662.493 482.298 660.752 480.629 659.048 479.169C658.774 478.935 658.502 478.706 658.239 478.482C657.997 478.275 657.75 478.051 657.642 477.748C657.352 476.931 658.713 475.156 658.77 474.086C658.868 472.224 657.693 470.14 656.364 468.962C654.525 467.334 651.824 466.796 649.524 467.602C648.521 467.953 647.438 468.542 646.467 468.105C645.051 467.469 645.333 465.702 644.137 464.788C643.074 463.974 641.469 463.787 640.356 464.599C639.842 464.974 639.44 465.502 638.893 465.825C637.665 466.549 636.128 466.053 634.713 466.129C633.169 466.211 631.68 467.044 630.779 468.331C630.09 469.315 629.719 470.554 628.819 471.339C627.848 472.185 626.48 472.319 625.308 472.834C622.277 474.167 620.938 478.415 622.533 481.375C624.128 484.334 628.221 485.467 631.117 483.848C631.774 483.482 632.364 483.001 632.949 482.514Z" fill="black"/>
<path d="M645.312 489.412C645.585 488.642 645.913 487.877 646.434 487.256C648.319 485.009 652.061 485.788 653.631 487.987C654.377 489.033 654.772 490.375 654.64 491.764C654.5 493.238 653.634 494.655 652.332 495.298" fill="white"/>
<path d="M645.312 489.412C645.585 488.642 645.913 487.877 646.434 487.256C648.319 485.009 652.061 485.788 653.631 487.987C654.377 489.033 654.772 490.375 654.64 491.764C654.5 493.238 653.634 494.655 652.332 495.298" stroke="#222221" stroke-width="0.5" stroke-miterlimit="10"/>
<path d="M676.098 607.759C664.745 608.555 652.228 609.41 641.535 605.569C643.686 602.566 646.041 599.469 649.038 597.296C652.014 595.137 655.108 595.009 658.653 595.346C660.202 595.493 661.757 595.579 663.314 595.604C671.503 595.74 679.717 594.198 687.328 591.095C695.033 587.953 703.496 586.016 711.798 585.376C716.793 584.991 721.897 585.189 726.795 586.313C731.033 587.285 735.455 589.539 737.373 593.76C738.35 595.909 738.515 598.313 738.139 600.633C737.917 602.006 736.931 606.166 735.11 606.166C734.141 606.784 732.996 607.029 731.879 607.264C722.992 609.134 713.392 607.664 704.321 607.356C694.888 607.035 685.514 607.101 676.098 607.759Z" fill="white" stroke="#222221" stroke-width="0.5" stroke-miterlimit="10"/>
<path d="M635.744 499.129C637.241 499.006 638.692 498.351 639.79 497.301" stroke="black" stroke-miterlimit="10"/>
<mask id="mask0_648_759" style="mask-type:luminance" maskUnits="userSpaceOnUse" x="629" y="472" width="35" height="43">
<path d="M650.638 476.201C664.777 484.755 651.476 506.444 663.265 512.72C656.423 515.145 648.927 515.597 641.854 514.012C642.157 514.08 642.084 509.382 642.062 509.068C641.829 505.814 639.528 505.87 637.128 504.933C635.639 504.353 634.434 503.166 633.545 501.811C630.769 497.576 629.943 491.801 629.43 486.832C629.021 482.877 629.615 479.068 632.549 476.214C634.279 474.529 635.989 474.608 638.037 473.67C640.27 472.647 641.819 472.632 644.223 473.284C646.486 473.897 648.628 474.984 650.638 476.201Z" fill="white"/>
</mask>
<g mask="url(#mask0_648_759)">
<path d="M639.756 506.276C639.733 506.201 639.716 506.116 639.691 506.043C641.962 505.829 644.387 505.297 646.271 504.132C645.397 505.842 642.75 508.411 640.734 510.315C640.711 509.8 640.568 507.516 639.756 506.276Z" fill="black"/>
</g>
<path d="M652.838 490.248C652.036 488.624 649.997 487.772 648.315 488.356C647.621 488.597 646.957 489.119 646.809 489.854" stroke="black" stroke-width="0.5" stroke-miterlimit="10"/>
<path d="M649.277 488.296C650.414 488.81 650.989 490.34 650.48 491.501" stroke="black" stroke-width="0.5" stroke-miterlimit="10"/>
<path d="M765.403 598.554C715.441 576.622 651.639 624.393 677.955 673.402" stroke="black" stroke-width="3" stroke-miterlimit="10"/>
<path d="M748.744 605.251H347.457V608.891H748.744V605.251Z" fill="white" stroke="#222221" stroke-width="0.5" stroke-miterlimit="10"/>
<path d="M587.815 605.22H670.836C671.928 605.22 672.813 604.313 672.813 603.195C672.813 602.077 671.928 601.17 670.836 601.17H587.815C586.723 601.17 585.838 602.077 585.838 603.195C585.838 604.313 586.723 605.22 587.815 605.22Z" fill="black"/>
<path d="M585.565 605.22H659.889L653.421 561.475C653.196 559.956 651.938 558.823 650.475 558.823H582.042C580.276 558.823 578.946 560.454 579.217 562.289L585.565 605.22Z" fill="black"/>
<path d="M612.389 578.898C612.389 580.911 613.982 582.542 615.946 582.542C617.912 582.542 619.504 580.91 619.504 578.898C619.504 576.886 617.911 575.254 615.946 575.254C613.982 575.254 612.389 576.886 612.389 578.898Z" fill="#222221" stroke="white" stroke-width="0.5" stroke-miterlimit="10"/>
<path d="M438.33 505.789C437.462 506.732 437.186 508.38 437.153 509.623C437.134 510.322 437.192 511.09 437.518 511.719C437.821 512.305 438.613 512.989 439.292 512.886C436.862 515.731 432.874 516.856 429.217 516.346C425.559 515.835 422.218 513.87 419.424 511.4C418.699 510.759 417.999 510.076 417.429 509.287C416.695 508.272 416.193 507.106 415.697 505.95C415.839 506.28 417.575 506.204 417.912 506.107C418.674 505.888 419.138 505.322 419.561 504.673C420.421 503.353 420.808 501.775 421.118 500.22C422.853 491.528 419.833 480.731 428.874 475.261C430.883 474.046 433.025 472.957 435.29 472.345C437.694 471.693 439.243 471.709 441.476 472.731C443.523 473.668 445.233 473.59 446.963 475.274C449.897 478.129 450.491 481.939 450.082 485.893C449.569 490.862 448.742 496.638 445.967 500.872C445.079 502.226 443.874 503.412 442.385 503.994C441.069 504.509 439.343 504.687 438.33 505.789Z" fill="white" stroke="#222221" stroke-width="0.5" stroke-miterlimit="10"/>
<path d="M430.003 490.836C428.713 492.473 427.413 494.175 425.745 495.43C424.67 496.239 422.402 497.714 421.075 496.695C420.023 495.888 420.448 491.896 420.405 490.68C420.318 488.173 420.377 485.657 420.675 483.167C420.931 481.033 421.369 478.899 422.265 476.954C423.162 475.01 424.549 473.257 426.385 472.215C428.128 471.225 429.899 471.166 431.82 470.956C434.237 470.692 436.67 470.492 439.101 470.619C441.972 470.77 444.851 471.371 447.698 470.959C449.125 470.752 450.521 470.293 451.961 470.231C453.402 470.169 454.978 470.598 455.82 471.796C456.729 473.087 456.539 474.86 456.157 476.404C455.8 477.85 455.301 479.281 454.468 480.506C453.713 481.614 452.184 483.141 450.845 483.48C449.504 483.821 447.437 482.635 446.138 482.21C445.354 481.954 444.746 481.312 443.916 481.156C443.264 481.034 442.584 481.239 442.017 481.592C440.239 482.696 439.487 484.849 437.159 483.355C436.194 482.735 435.073 481.93 434.023 482.387C432.484 483.057 433.213 484.701 432.835 485.904C432.314 487.564 431.068 489.483 430.003 490.836Z" fill="black"/>
<path d="M434.199 488.474C433.926 487.705 433.598 486.939 433.077 486.318C431.192 484.071 427.449 484.85 425.88 487.05C425.134 488.095 424.739 489.438 424.871 490.827C425.114 493.391 427.607 495.403 430.096 494.486C430.483 494.344 430.88 494.097 431 493.693" fill="white"/>
<path d="M434.199 488.474C433.926 487.705 433.598 486.939 433.077 486.318C431.192 484.071 427.449 484.85 425.88 487.05C425.134 488.095 424.739 489.438 424.871 490.827C425.114 493.391 427.607 495.403 430.096 494.486C430.483 494.344 430.88 494.097 431 493.693" stroke="#222221" stroke-width="0.5" stroke-miterlimit="10"/>
<path d="M443.766 498.191C442.269 498.069 440.818 497.413 439.721 496.363" stroke="black" stroke-miterlimit="10"/>
<mask id="mask1_648_759" style="mask-type:luminance" maskUnits="userSpaceOnUse" x="416" y="471" width="35" height="44">
<path d="M428.873 475.263C414.735 483.817 428.035 505.506 416.246 511.782C423.088 514.207 430.585 514.659 437.657 513.075C437.355 513.142 437.428 508.443 437.45 508.131C437.682 504.876 439.983 504.932 442.383 503.995C443.872 503.415 445.077 502.228 445.966 500.873C448.743 496.638 449.568 490.863 450.081 485.895C450.491 481.94 449.896 478.131 446.963 475.276C445.233 473.591 443.522 473.67 441.476 472.732C439.243 471.709 437.692 471.695 435.29 472.345C433.024 472.959 430.883 474.046 428.873 475.263Z" fill="white"/>
</mask>
<g mask="url(#mask1_648_759)">
<path d="M439.753 505.339C439.777 505.263 439.794 505.179 439.818 505.105C437.548 504.891 435.123 504.359 433.238 503.194C434.113 504.904 436.76 507.473 438.775 509.377C438.797 508.862 438.942 506.578 439.753 505.339Z" fill="black"/>
</g>
<path d="M428.566 487.376C429.429 487.214 430.363 487.526 430.966 488.176C431.57 488.828 431.825 489.799 431.622 490.673" stroke="black" stroke-width="0.5" stroke-miterlimit="10"/>
<path d="M686.602 546.069C697.597 558.21 702.583 570.096 708.209 585.621L686.602 546.069Z" fill="#5F76E8"/>
<path d="M686.602 546.069C697.597 558.21 702.583 570.096 708.209 585.621" stroke="black" stroke-width="0.5" stroke-miterlimit="10"/>
<path d="M451.514 532.903C453.143 537.071 454.178 541.481 454.577 545.952L451.514 532.903Z" fill="#95CFB6"/>
<path d="M451.514 532.903C453.143 537.071 454.178 541.481 454.577 545.952" stroke="black" stroke-width="0.5" stroke-miterlimit="10"/>
<path d="M494.344 645.502C496.9 648.038 499.013 651.042 500.548 654.33L494.344 645.502Z" fill="#5F76E8"/>
<path d="M494.344 645.502C496.9 648.038 499.013 651.042 500.548 654.33" stroke="black" stroke-width="0.5" stroke-miterlimit="10"/>
<path d="M501.742 658.147C502.648 659.827 503.465 661.557 504.19 663.327L501.742 658.147Z" fill="#5F76E8"/>
<path d="M501.742 658.147C502.648 659.827 503.465 661.557 504.19 663.327" stroke="black" stroke-width="0.5" stroke-miterlimit="10"/>
<path d="M518.218 643.442C518.278 647.397 518.226 651.354 518.062 655.307L518.218 643.442Z" fill="#5F76E8"/>
<path d="M518.218 643.442C518.278 647.397 518.226 651.354 518.062 655.307" stroke="black" stroke-width="0.5" stroke-miterlimit="10"/>
<path d="M461.059 668.903C462.066 668.291 463.131 667.779 464.233 667.377L461.059 668.903Z" fill="#5F76E8"/>
<path d="M461.059 668.903C462.066 668.291 463.131 667.779 464.233 667.377" stroke="black" stroke-width="0.5" stroke-miterlimit="10"/>
<path d="M390.711 657.597C391.356 659.238 392.28 660.791 393.583 661.952C394.885 663.113 396.592 663.853 398.317 663.761" fill="#5F76E8"/>
<path d="M390.711 657.597C391.356 659.238 392.28 660.791 393.583 661.952C394.885 663.113 396.592 663.853 398.317 663.761" stroke="black" stroke-width="0.5" stroke-miterlimit="10"/>
<path d="M401.084 664.49C402.258 664.761 403.478 664.821 404.672 664.666L401.084 664.49Z" fill="#5F76E8"/>
<path d="M401.084 664.49C402.258 664.761 403.478 664.821 404.672 664.666" stroke="black" stroke-width="0.5" stroke-miterlimit="10"/>
<path d="M381.013 553.372C380.235 558.018 379.692 562.705 379.389 567.409L381.013 553.372Z" fill="white"/>
<path d="M381.013 553.372C380.235 558.018 379.692 562.705 379.389 567.409" stroke="#222221" stroke-width="0.5" stroke-miterlimit="10"/>
<path d="M379.221 572.255C379.275 573.424 379.33 574.594 379.384 575.763L379.221 572.255Z" fill="white"/>
<path d="M379.221 572.255C379.275 573.424 379.33 574.594 379.384 575.763" stroke="#222221" stroke-width="0.5" stroke-miterlimit="10"/>
<path d="M407.172 555.544C404.069 553.586 400.368 551.105 397.528 548.788L396.854 548.351C397.739 550.079 397.967 552.079 398.657 553.898C399.346 555.718 400.77 557.502 402.674 557.594C404.329 557.675 405.628 557.743 406.95 558.974C407.561 559.543 408.076 560.226 408.742 560.729C409.695 561.447 411.016 561.77 412.182 561.52C413.346 561.269 414.046 559.802 415.33 560.113C411.93 558.646 410.289 557.512 407.172 555.544Z" fill="black"/>
<path d="M694.997 561.498C695.572 562.146 696.303 562.659 696.759 563.401C697.32 564.312 697.39 565.456 697.279 566.527C697.143 567.83 696.839 569.364 697.762 570.27C698.646 571.138 700.272 570.938 700.973 571.966C701.431 572.638 701.304 573.604 701.788 574.256C702.327 574.98 703.361 575.012 704.248 574.978C703.91 574.033 703.487 573.124 703.065 572.214C701.977 569.876 700.905 567.528 699.801 565.197C699.44 564.436 699.196 563.55 698.788 562.824C698.306 561.966 697.631 561.324 697.205 560.395C696.499 558.862 695.711 557.326 694.506 556.164C694.439 556.1 694.355 556.032 694.266 556.053C694.189 556.071 694.143 556.148 694.105 556.217C693.145 557.958 693.702 560.039 694.997 561.498Z" fill="black"/>
<path d="M585.242 679.108C585.977 679.999 586.104 681.242 586.463 682.35C586.822 683.458 587.681 684.612 588.818 684.521C589.444 684.471 589.974 684.049 590.463 683.646C591.361 682.904 592.26 682.162 593.158 681.42C591.569 680.963 590.193 679.96 588.853 678.975C587.679 678.112 586.572 677.152 585.407 676.276C584.033 675.242 582.807 673.788 581.459 672.877C581.64 674.728 581.198 675.584 582.571 676.963C583.368 677.761 584.525 678.239 585.242 679.108Z" fill="black"/>
<path d="M606.516 757.368C607.275 756.941 608.246 757.472 608.738 758.201C609.231 758.93 609.43 759.825 609.859 760.595C610.413 761.592 611.362 762.352 612.441 762.662C612.704 762.738 612.992 762.786 613.245 762.681C613.952 762.387 613.789 761.325 613.501 760.601C613.121 759.648 612.742 758.695 612.362 757.74C611.962 756.737 611.686 755.324 612.609 754.792C613.293 754.397 614.181 754.865 614.63 755.525C615.078 756.185 615.248 757 615.6 757.718C615.952 758.436 616.619 759.111 617.401 759.039C618.527 758.937 618.972 757.436 618.773 756.297C618.495 754.712 617.491 753.277 616.114 752.499" stroke="#95CFB6" stroke-miterlimit="10"/>
<path d="M487.988 751.75C486.115 753.297 484.561 755.246 483.454 757.433C483.258 757.82 483.071 758.232 483.072 758.669C483.073 759.106 483.314 759.571 483.725 759.687C484.103 759.795 484.491 759.593 484.833 759.395C486.891 758.211 488.95 757.026 491.008 755.842C490.394 757.306 489.78 758.772 489.166 760.237C488.706 761.335 488.28 762.717 489.037 763.625C489.381 764.038 489.908 764.247 490.432 764.327C492.282 764.611 494.231 763.267 494.671 761.406" stroke="#95CFB6" stroke-miterlimit="10"/>
<path d="M550.12 680.134C549.472 681.894 549.132 683.772 549.121 685.652C549.119 686.134 549.28 686.771 549.75 686.775C549.98 686.777 550.173 686.61 550.343 686.451C551.824 685.053 553.182 683.518 554.393 681.869C554.963 682.546 555.024 683.52 554.986 684.414C554.949 685.307 554.847 686.239 555.18 687.065C555.512 687.891 556.475 688.537 557.262 688.151C557.769 687.904 558.032 687.334 558.252 686.806C558.867 685.326 559.441 683.829 559.975 682.317" stroke="#95CFB6" stroke-miterlimit="10"/>
<path d="M544.991 746.928C544.35 748.567 544.176 750.395 544.496 752.129C544.611 752.753 544.874 753.455 545.467 753.632C546.073 753.811 546.674 753.335 547.068 752.831C548.71 750.719 549.001 747.493 551.243 746.076C551.073 747.818 551.288 749.599 551.869 751.245C552.119 751.955 552.591 752.75 553.329 752.748C554.067 752.745 554.53 751.955 554.841 751.27C555.534 749.747 556.226 748.224 556.919 746.701" stroke="#95CFB6" stroke-miterlimit="10"/>
<path d="M496.421 488.733L496.123 529.77L507.22 529.854L507.518 488.733H496.421Z" fill="#95CFB6" stroke="black" stroke-width="0.5" stroke-miterlimit="10"/>
<path d="M521.332 466.987L520.877 529.943L531.974 530.027L532.429 467.071L521.332 466.987Z" fill="#878787" stroke="black" stroke-width="0.5" stroke-miterlimit="10"/>
<path d="M546.037 474.17L545.633 530.131L556.73 530.215L557.134 474.254L546.037 474.17Z" fill="#95CFB6" stroke="black" stroke-width="0.5" stroke-miterlimit="10"/>
<path d="M568.83 501.45L568.621 530.305L579.718 530.389L579.927 501.535L568.83 501.45Z" fill="#878787" stroke="black" stroke-width="0.5" stroke-miterlimit="10"/>
<path d="M486.867 529.789L584.456 530.655" stroke="#1B2258" stroke-width="0.75" stroke-miterlimit="10"/>
<path d="M530.338 470.985V488.296" stroke="black" stroke-width="0.5" stroke-miterlimit="10"/>
<path d="M529.863 490.88C530.029 493.201 530.032 495.534 529.871 497.856" stroke="black" stroke-width="0.5" stroke-miterlimit="10"/>
<path d="M504.873 499.408C504.958 502.508 505.042 505.609 505.127 508.709" stroke="black" stroke-width="0.5" stroke-miterlimit="10"/>
<path d="M578.301 509.226V516.46" stroke="black" stroke-width="0.5" stroke-miterlimit="10"/>
<path d="M578.049 520.593V523.991" stroke="black" stroke-width="0.5" stroke-miterlimit="10"/>
<path d="M555.094 503.541V514.396" stroke="black" stroke-width="0.5" stroke-miterlimit="10"/>
<path d="M553.076 500.181C553.076 501.215 553.076 502.248 553.076 503.282" stroke="black" stroke-width="0.5" stroke-miterlimit="10"/>
<path d="M554.842 495.531C554.842 496.565 554.842 497.597 554.842 498.631" stroke="black" stroke-width="0.5" stroke-miterlimit="10"/>
<path d="M705.901 366.114C707.584 358.773 703.139 351.425 695.973 349.702C688.806 347.978 681.632 352.531 679.949 359.872C678.267 367.212 682.712 374.56 689.878 376.284C697.045 378.008 704.219 373.454 705.901 366.114Z" fill="white" stroke="black" stroke-width="0.5" stroke-miterlimit="10"/>
<path d="M692.158 370.52C692.089 370.534 692.034 370.541 691.993 370.541C691.951 370.541 691.909 370.541 691.869 370.541C691.441 370.541 691.055 370.527 690.71 370.498C690.366 370.47 690.045 370.427 689.748 370.371C689.451 370.314 689.165 370.244 688.889 370.16C688.613 370.076 688.331 369.983 688.041 369.885C688.069 369.575 688.127 369.26 688.217 368.942C688.306 368.624 688.407 368.318 688.517 368.021C688.986 368.177 689.469 368.314 689.966 368.434C690.462 368.554 691.062 368.615 691.766 368.615C692.897 368.615 693.738 368.389 694.29 367.937C694.841 367.485 695.117 366.864 695.117 366.073C695.117 365.678 695.058 365.346 694.941 365.077C694.824 364.809 694.648 364.576 694.414 364.378C694.18 364.181 693.883 364.001 693.525 363.838C693.167 363.676 692.746 363.488 692.263 363.277L691.27 362.853C690.856 362.683 690.477 362.493 690.132 362.281C689.786 362.07 689.486 361.818 689.232 361.528C688.977 361.239 688.78 360.896 688.642 360.5C688.505 360.105 688.436 359.631 688.436 359.081C688.436 357.993 688.757 357.103 689.398 356.411C690.039 355.719 690.959 355.288 692.16 355.118V353.064C692.366 353.008 692.601 352.979 692.863 352.979C693.139 352.979 693.387 353.008 693.607 353.064V355.034C694.186 355.063 694.755 355.126 695.313 355.224C695.871 355.324 696.35 355.45 696.751 355.605C696.682 356.199 696.53 356.785 696.296 357.363C695.924 357.222 695.496 357.098 695.013 356.993C694.53 356.887 693.971 356.834 693.337 356.834C692.468 356.834 691.799 357.003 691.331 357.342C690.862 357.681 690.628 358.203 690.628 358.91C690.628 359.248 690.689 359.542 690.814 359.789C690.938 360.036 691.121 360.256 691.362 360.446C691.603 360.637 691.893 360.809 692.231 360.964C692.569 361.12 692.951 361.29 693.38 361.474L694.166 361.812C694.662 362.024 695.11 362.243 695.51 362.468C695.91 362.694 696.25 362.963 696.533 363.273C696.816 363.584 697.036 363.951 697.195 364.375C697.354 364.798 697.432 365.314 697.432 365.921C697.432 367.121 697.099 368.099 696.429 368.856C695.76 369.612 694.819 370.109 693.606 370.349V372.785C693.496 372.813 693.379 372.834 693.254 372.849C693.13 372.863 693.013 372.87 692.902 372.87C692.778 372.87 692.654 372.863 692.53 372.849C692.406 372.834 692.282 372.813 692.158 372.785V370.52Z" fill="black"/>
<path d="M376.871 497.304C384.213 494.189 387.7 485.567 384.659 478.047C381.617 470.526 373.199 466.955 365.857 470.07C358.515 473.185 355.028 481.807 358.069 489.328C361.111 496.848 369.529 500.42 376.871 497.304Z" fill="white" stroke="black" stroke-width="0.5" stroke-miterlimit="10"/>
<path d="M370.517 491.813C370.441 491.828 370.382 491.835 370.338 491.835C370.294 491.835 370.249 491.835 370.204 491.835C369.742 491.835 369.325 491.82 368.953 491.789C368.581 491.758 368.235 491.713 367.915 491.652C367.595 491.591 367.286 491.515 366.988 491.423C366.69 491.332 366.385 491.233 366.072 491.125C366.101 490.791 366.165 490.451 366.262 490.108C366.359 489.765 366.466 489.434 366.586 489.113C367.092 489.282 367.614 489.43 368.149 489.56C368.686 489.689 369.332 489.754 370.091 489.754C371.311 489.754 372.22 489.511 372.816 489.022C373.411 488.534 373.709 487.863 373.709 487.01C373.709 486.583 373.645 486.225 373.519 485.935C373.393 485.645 373.203 485.393 372.949 485.18C372.695 484.966 372.375 484.773 371.988 484.597C371.601 484.422 371.147 484.219 370.627 483.99L369.555 483.533C369.108 483.35 368.698 483.144 368.326 482.916C367.954 482.687 367.63 482.418 367.355 482.104C367.079 481.792 366.867 481.422 366.719 480.994C366.571 480.568 366.496 480.057 366.496 479.462C366.496 478.288 366.843 477.328 367.535 476.58C368.227 475.833 369.221 475.368 370.515 475.185V472.967C370.739 472.906 370.992 472.875 371.274 472.875C371.572 472.875 371.84 472.906 372.078 472.967V475.094C372.703 475.125 373.317 475.193 373.92 475.299C374.523 475.406 375.041 475.544 375.472 475.711C375.398 476.352 375.233 476.985 374.98 477.609C374.578 477.457 374.117 477.323 373.596 477.209C373.074 477.095 372.472 477.037 371.787 477.037C370.849 477.037 370.127 477.22 369.621 477.585C369.114 477.951 368.862 478.516 368.862 479.278C368.862 479.644 368.929 479.96 369.062 480.228C369.197 480.495 369.394 480.731 369.654 480.936C369.914 481.141 370.227 481.329 370.592 481.496C370.957 481.665 371.369 481.848 371.831 482.046L372.679 482.412C373.214 482.641 373.699 482.877 374.13 483.12C374.561 483.365 374.929 483.654 375.235 483.989C375.54 484.325 375.779 484.721 375.95 485.178C376.122 485.635 376.208 486.192 376.208 486.849C376.208 488.145 375.846 489.201 375.124 490.017C374.402 490.832 373.386 491.37 372.076 491.63V494.26C371.957 494.291 371.831 494.314 371.696 494.329C371.563 494.344 371.435 494.352 371.317 494.352C371.183 494.352 371.05 494.343 370.915 494.329C370.781 494.314 370.647 494.291 370.513 494.26V491.813H370.517Z" fill="black"/>
<path d="M772.113 492.634C773.707 485.593 769.427 478.563 762.554 476.93C755.68 475.297 748.816 479.681 747.222 486.721C745.628 493.762 749.908 500.793 756.782 502.425C763.655 504.058 770.519 499.674 772.113 492.634Z" fill="white" stroke="black" stroke-width="0.5" stroke-miterlimit="10"/>
<path d="M758.934 496.871C758.868 496.884 758.815 496.891 758.775 496.891C758.736 496.891 758.696 496.891 758.656 496.891C758.246 496.891 757.876 496.877 757.546 496.851C757.216 496.823 756.909 496.783 756.623 496.728C756.34 496.674 756.065 496.606 755.801 496.525C755.536 496.445 755.265 496.357 754.988 496.262C755.015 495.964 755.071 495.662 755.156 495.358C755.242 495.053 755.338 494.759 755.444 494.475C755.893 494.625 756.356 494.757 756.832 494.871C757.308 494.986 757.883 495.043 758.556 495.043C759.64 495.043 760.447 494.827 760.975 494.393C761.503 493.96 761.768 493.364 761.768 492.606C761.768 492.227 761.711 491.909 761.6 491.651C761.487 491.394 761.319 491.171 761.094 490.981C760.87 490.791 760.586 490.619 760.241 490.463C759.898 490.308 759.495 490.129 759.032 489.926L758.08 489.52C757.684 489.357 757.32 489.174 756.99 488.971C756.658 488.768 756.371 488.528 756.127 488.251C755.883 487.973 755.694 487.645 755.562 487.265C755.43 486.887 755.364 486.433 755.364 485.905C755.364 484.863 755.671 484.01 756.286 483.346C756.9 482.682 757.783 482.269 758.933 482.107V480.136C759.131 480.082 759.356 480.056 759.608 480.056C759.872 480.056 760.109 480.083 760.321 480.136V482.025C760.876 482.052 761.422 482.113 761.957 482.208C762.492 482.303 762.951 482.425 763.334 482.573C763.268 483.142 763.122 483.703 762.899 484.259C762.542 484.124 762.132 484.005 761.669 483.904C761.206 483.803 760.671 483.752 760.063 483.752C759.231 483.752 758.589 483.915 758.139 484.24C757.69 484.565 757.466 485.066 757.466 485.743C757.466 486.068 757.525 486.349 757.644 486.585C757.764 486.823 757.939 487.032 758.169 487.214C758.4 487.397 758.678 487.563 759.001 487.712C759.325 487.861 759.692 488.023 760.102 488.2L760.856 488.525C761.332 488.728 761.761 488.938 762.144 489.154C762.528 489.371 762.855 489.629 763.126 489.926C763.397 490.223 763.608 490.576 763.761 490.982C763.913 491.388 763.989 491.883 763.989 492.465C763.989 493.616 763.668 494.552 763.027 495.277C762.386 496.001 761.484 496.478 760.321 496.708V499.043C760.216 499.07 760.104 499.09 759.984 499.103C759.866 499.116 759.754 499.124 759.647 499.124C759.528 499.124 759.409 499.116 759.29 499.103C759.171 499.09 759.052 499.069 758.933 499.043V496.871H758.934Z" fill="black"/>
<path d="M488.419 333.622H431.5V370.316H488.419V333.622Z" fill="black"/>
<path d="M481.893 328.298H424.975V364.992H481.893V328.298Z" fill="#95CFB6" stroke="black" stroke-width="0.5" stroke-miterlimit="10"/>
<path d="M481.893 328.298C481.893 328.298 455.51 344.909 453.434 346.645L424.975 328.298" stroke="black" stroke-width="0.5" stroke-miterlimit="10"/>
<path d="M479.338 351.029C479.592 354.106 479.601 357.204 479.365 360.283" stroke="black" stroke-width="0.5" stroke-miterlimit="10"/>
<path d="M479.242 349.201C479.284 348.065 479.326 346.928 479.367 345.792" stroke="black" stroke-width="0.5" stroke-miterlimit="10"/>
<path d="M477.686 348.471C477.686 349.283 477.686 350.095 477.686 350.907" stroke="black" stroke-width="0.5" stroke-miterlimit="10"/>
<path d="M454.387 343.722C454.387 343.722 458.393 341.13 459.736 340.191" stroke="black" stroke-width="0.5" stroke-miterlimit="10"/>
<path d="M461.379 338.945C461.943 338.494 462.551 338.098 463.188 337.764" stroke="black" stroke-width="0.5" stroke-miterlimit="10"/>
<path d="M719.368 404.305C731.431 404.319 743.485 406.552 754.678 411.094C762.005 414.067 771.385 419.793 771.385 429.04C771.385 437.117 763.72 442.664 757.406 445.888C752.574 448.354 747.372 450.041 742.113 451.259C735.054 452.883 727.665 453.828 720.244 453.966C719.611 461.897 716.506 469.633 711.384 475.627C709.447 477.892 707.054 480.01 704.146 480.438C708.956 472.49 711.172 463.003 710.711 453.672C701.316 452.932 692.07 450.805 683.586 446.974C676.571 443.807 667.353 438.004 667.352 429.04C667.353 418.344 678.728 412.582 687.245 409.646C697.54 406.095 708.459 404.293 719.368 404.305Z" fill="#D47172" stroke="black" stroke-width="0.5" stroke-miterlimit="10"/>
<path d="M755.391 427.101C754.909 431.508 751.011 435.177 746.867 435.125C742.723 435.072 738.907 431.306 738.522 426.888C738.377 425.23 738.849 423.274 740.279 422.616C741.709 421.959 743.453 423.04 744.055 424.577C744.657 426.114 744.351 427.898 743.733 429.428C741.854 434.08 736.974 437.119 732.269 436.567C727.564 436.015 723.414 431.917 722.519 426.94C722.213 425.238 722.39 423.186 723.728 422.21C725.386 421.001 727.866 422.427 728.443 424.484C729.02 426.542 728.179 428.775 726.967 430.488C724.443 434.052 720.162 435.874 716.045 435.684C714.196 435.598 711.776 435.138 710.24 433.997C707.983 432.323 705.728 426.943 707.5 424.239C707.85 423.705 708.416 423.287 709.025 423.314C709.44 423.332 709.828 423.553 710.142 423.842C710.951 424.588 711.316 425.768 711.348 426.909C711.413 429.262 710.123 431.894 708.672 433.618C705.973 436.829 701.286 437.787 697.568 436.113C693.849 434.44 691.252 430.367 690.886 426.066C690.749 424.454 691.392 422.304 692.902 422.387C694.016 422.448 694.677 423.75 694.922 424.914C695.63 428.275 694.628 431.991 692.355 434.429C690.082 436.867 686.614 437.95 683.475 437.198" stroke="black" stroke-width="0.5" stroke-miterlimit="10"/>
<path d="M764.867 434.546C762.641 439.777 757.154 442.719 751.801 444.302" stroke="black" stroke-width="0.5" stroke-miterlimit="10"/>
<path d="M749.122 445.582C747.424 446.406 745.587 446.927 743.717 447.112" stroke="black" stroke-width="0.5" stroke-miterlimit="10"/>
<path d="M687.271 414.155C683.086 415.568 679.128 417.684 675.605 420.395" stroke="black" stroke-width="0.5" stroke-miterlimit="10"/>
<path d="M435.83 399.996C435.797 399.967 435.763 399.939 435.728 399.911C433.699 398.225 431.294 397.081 428.847 396.148C421.741 393.439 414.128 392.397 406.558 391.972C396.473 391.404 386.556 391.453 376.517 392.512C363.577 393.876 344.843 396.52 342.366 412.668C342.108 414.35 342.131 416.074 342.488 417.739C343.667 423.233 348.206 427.458 353.266 429.644C358.325 431.829 363.909 432.304 369.383 432.742C385.696 434.046 402.311 435.214 418.328 432.136C418.378 434.343 418.474 436.557 418.983 438.697C420.688 445.872 427.407 451.464 434.613 451.708C429.513 449.275 426.454 443.624 425.551 437.936C425.162 435.479 425.123 433 425.266 430.518C430.205 429.101 435.085 426.941 438.258 422.873C443.553 416.086 442.3 405.469 435.83 399.996Z" fill="#D47172" stroke="black" stroke-width="0.5" stroke-miterlimit="10"/>
<path d="M360.021 420.118C361.621 415.216 365.27 411.054 369.858 408.903C371.398 408.182 373.124 407.673 374.78 408.036C377.983 408.738 379.738 412.418 379.933 415.768C380.004 416.976 379.919 418.246 379.32 419.29C378.721 420.333 377.491 421.073 376.349 420.759C375.164 420.435 374.457 419.078 374.517 417.825C374.576 416.57 375.237 415.427 376.014 414.455C377.709 412.33 380.019 410.767 382.517 409.775C385.802 408.47 389.771 408.216 392.642 410.305C395.514 412.394 396.355 417.335 393.614 419.601C393.056 420.061 392.335 420.396 391.633 420.252C389.978 419.913 389.827 417.482 390.498 415.896C392.091 412.136 395.927 409.709 399.881 409.077C401.734 408.78 403.769 408.868 405.291 409.99C408.165 412.106 407.781 416.739 405.974 419.856C405.637 420.436 405.224 421.027 404.607 421.264C403.445 421.708 402.156 420.57 401.99 419.312C401.824 418.054 402.457 416.831 403.204 415.818C405.206 413.103 408.211 411.184 411.47 410.539C414.051 410.029 417.171 410.551 418.496 412.876C419.817 415.195 418.755 418.192 417.211 420.36C416.957 420.718 416.622 421.101 416.191 421.084C415.802 421.069 415.507 420.734 415.263 420.424C412.474 416.875 414.664 414.454 417.697 411.904C419.702 410.217 422.556 409.655 425.029 410.458" stroke="#222221" stroke-width="0.5" stroke-miterlimit="10"/>
<path d="M437.492 413.016C437.668 416.055 436.185 419.042 433.976 421.077C431.766 423.113 428.901 424.281 425.986 424.883" stroke="black" stroke-width="0.5" stroke-miterlimit="10"/>
<path d="M436.84 409.229C436.726 407.198 435.269 405.548 433.895 404.081" stroke="black" stroke-width="0.5" stroke-miterlimit="10"/>
<path d="M355.522 400.846C352.363 401.861 349.584 404.07 347.84 406.952C346.096 409.834 345.402 413.367 345.92 416.715" stroke="black" stroke-width="0.5" stroke-miterlimit="10"/>
<path d="M346.732 419.553C347.264 421.122 348.215 422.539 349.452 423.611" stroke="black" stroke-width="0.5" stroke-miterlimit="10"/>
<path d="M349.919 407.821C348.99 409.099 348.396 410.63 348.213 412.213" stroke="black" stroke-width="0.5" stroke-miterlimit="10"/>
<path d="M413.793 762.086C418.438 762.086 423.084 762.086 427.728 762.086" stroke="#222221" stroke-width="0.5" stroke-miterlimit="10"/>
<path d="M342.457 762.086C360.584 762.32 379.126 762.32 397.479 762.086" stroke="#222221" stroke-width="0.5" stroke-miterlimit="10"/>
<path d="M441.215 762.086H482.11" stroke="#222221" stroke-width="0.5" stroke-miterlimit="10"/>
<path d="M686.051 773.704C689.349 773.704 692.647 773.704 695.945 773.704" stroke="#222221" stroke-width="0.5" stroke-miterlimit="10"/>
<defs>
<filter id="filter0_d_648_759" x="0" y="-110" width="918" height="1198" filterUnits="userSpaceOnUse" color-interpolation-filters="sRGB">
<feFlood flood-opacity="0" result="BackgroundImageFix"/>
<feColorMatrix in="SourceAlpha" type="matrix" values="0 0 0 0 0 0 0 0 0 0 0 0 0 0 0 0 0 0 127 0" result="hardAlpha"/>
<feOffset dy="4"/>
<feGaussianBlur stdDeviation="2"/>
<feComposite in2="hardAlpha" operator="out"/>
<feColorMatrix type="matrix" values="0 0 0 0 0 0 0 0 0 0 0 0 0 0 0 0 0 0 0.25 0"/>
<feBlend mode="normal" in2="BackgroundImageFix" result="effect1_dropShadow_648_759"/>
<feBlend mode="normal" in="SourceGraphic" in2="effect1_dropShadow_648_759" result="shape"/>
</filter>
<linearGradient id="paint0_linear_648_759" x1="82.437" y1="-37.1244" x2="780.428" y2="1158.01" gradientUnits="userSpaceOnUse">
<stop stop-color="#F56F10"/>
<stop offset="1" stop-color="#FEAA08"/>
</linearGradient>
</defs>
</svg>
