<svg width="32" height="32" viewBox="0 0 32 32" fill="none" xmlns="http://www.w3.org/2000/svg">
<path d="M7.38665 26.0267C6.57331 26.0267 5.81332 25.7466 5.26665 25.2266C4.57332 24.5733 4.23998 23.5866 4.35998 22.5199L4.85332 18.1999C4.94665 17.3866 5.43998 16.3066 6.01332 15.7199L16.96 4.13332C19.6933 1.23998 22.5467 1.15998 25.44 3.89332C28.3333 6.62665 28.4133 9.47999 25.68 12.3733L14.7333 23.9599C14.1733 24.5599 13.1333 25.1199 12.32 25.2534L8.02665 25.9866C7.79998 25.9999 7.59998 26.0267 7.38665 26.0267ZM21.24 3.87999C20.2133 3.87999 19.32 4.51999 18.4133 5.47999L7.46665 17.0801C7.19998 17.3601 6.89332 18.0267 6.83998 18.4134L6.34665 22.7333C6.29332 23.1733 6.39998 23.5333 6.63998 23.7599C6.87998 23.9866 7.23998 24.0666 7.67998 23.9999L11.9733 23.2667C12.36 23.2001 13 22.8533 13.2666 22.5733L24.2133 10.9867C25.8667 9.22665 26.4667 7.59999 24.0533 5.33332C22.9867 4.30665 22.0667 3.87999 21.24 3.87999Z" fill="#424242"/>
<path d="M23.1199 14.5997C23.0933 14.5997 23.0533 14.5997 23.0266 14.5997C18.8666 14.1863 15.5199 11.0264 14.8799 6.89305C14.7999 6.34638 15.1733 5.83972 15.7199 5.74638C16.2666 5.66638 16.7733 6.03972 16.8666 6.58638C17.3733 9.81305 19.9866 12.2931 23.2399 12.6131C23.7866 12.6664 24.1866 13.1597 24.1333 13.7063C24.0666 14.213 23.6266 14.5997 23.1199 14.5997Z" fill="#424242"/>
<path d="M28 30.3333H4C3.45333 30.3333 3 29.8799 3 29.3333C3 28.7866 3.45333 28.3333 4 28.3333H28C28.5467 28.3333 29 28.7866 29 29.3333C29 29.8799 28.5467 30.3333 28 30.3333Z" fill="#424242"/>
</svg>
