<svg width="32" height="32" viewBox="0 0 32 32" fill="none" xmlns="http://www.w3.org/2000/svg">
<path d="M24 20L28 16L24 12" stroke="#424242" stroke-width="2" stroke-linecap="round" stroke-linejoin="round"/>
<path d="M28 16H9.33333M18.6667 21.3333V24.8C18.6667 25.2202 18.5839 25.6363 18.4231 26.0246C18.2623 26.4128 18.0266 26.7656 17.7294 27.0627C17.4323 27.3599 17.0795 27.5956 16.6913 27.7564C16.303 27.9172 15.8869 28 15.4667 28H7.2C6.35131 28 5.53737 27.6629 4.93726 27.0627C4.33714 26.4626 4 25.6487 4 24.8V7.2C4 6.77977 4.08277 6.36365 4.24359 5.97541C4.4044 5.58717 4.64011 5.23441 4.93726 4.93726C5.53737 4.33714 6.35131 4 7.2 4H15.4667C15.8869 4 16.303 4.08277 16.6913 4.24359C17.0795 4.4044 17.4323 4.64011 17.7294 4.93726C18.0266 5.23441 18.2623 5.58717 18.4231 5.97541C18.5839 6.36365 18.6667 6.77977 18.6667 7.2V10.6667" stroke="#424242" stroke-width="2" stroke-miterlimit="10" stroke-linecap="round"/>
</svg>
